<?xml version="1.0" encoding="UTF-8"?>
<svg id="Layer_1" xmlns="http://www.w3.org/2000/svg" version="1.1" viewBox="0 0 1024 1024">
  <!-- Generator: Adobe Illustrator 30.4.0, SVG Export Plug-In . SVG Version: 2.1.4 Build 226)  -->
  <defs>
    <style>
      .st0 {
        isolation: isolate;
      }

      .st1 {
        fill: #fff;
      }

      .st2 {
        fill: #0f1211;
      }

      .st3 {
        fill: #e9ecea;
      }

      .st4 {
        fill: #15c26a;
      }
    </style>
  </defs>
  <rect class="st2" width="1024" height="1024" rx="230.4" ry="230.4"/>
  <g class="st0">
    <path class="st3" d="M252.72,550.91h111.82c1.91,5.73,7.51,10.59,16.79,14.54,9.28,3.96,21.77,6.96,37.48,9.01,15.7,2.05,33.93,3.07,54.68,3.07s36.66-.61,48.54-1.84c11.88-1.23,20.28-3.41,25.19-6.55,4.91-3.14,7.37-7.44,7.37-12.9,0-5.18-3.96-9.22-11.88-12.08-7.92-2.87-21.98-4.84-42.19-5.94-20.21-1.09-48.61-1.64-85.2-1.64-27.31,0-50.86-1.29-70.66-3.89-19.8-2.59-36.04-6.69-48.74-12.29-12.7-5.59-22.05-12.7-28.06-21.3-6.01-8.6-9.01-18.91-9.01-30.92,0-20.75,7.03-37.89,21.09-51.41,14.06-13.52,35.36-23.62,63.9-30.31,28.53-6.69,64.24-10.04,107.11-10.04,62.8,0,110.8,9.08,143.97,27.24,33.18,18.16,49.77,44.31,49.77,78.44h-106.09c-1.37-9.01-9.83-15.9-25.39-20.69-15.56-4.77-37.68-7.17-66.36-7.17s-49.5,1.64-63.28,4.92c-13.79,3.28-20.68,8.88-20.68,16.79,0,4.1,1.91,7.37,5.73,9.83,3.82,2.46,10.44,4.44,19.87,5.94,9.42,1.5,22.73,2.53,39.94,3.07,17.2.55,39.05.82,65.54.82,29.21,0,54.07,1.43,74.55,4.3,20.48,2.87,37.07,7.17,49.77,12.9s21.91,13.04,27.65,21.91c5.73,8.88,8.6,19.32,8.6,31.33,0,20.75-6.55,37.68-19.66,50.79-13.11,13.11-33.86,22.8-62.26,29.08-28.4,6.28-65.54,9.42-111.41,9.42-25.95,0-49.77-1.5-71.47-4.51-21.71-3.01-41.03-7.44-57.96-13.31-16.93-5.87-31.27-13.11-43.01-21.71-11.74-8.6-20.68-18.29-26.83-29.08-6.14-10.78-9.22-22.73-9.22-35.84Z"/>
  </g>
  <circle class="st4" cx="734.41" cy="608.26" r="38.91"/>
  <g>
    <path class="st1" d="M410.99,789.11c-.42,7.99-3.32,14.67-8.7,20.05-5.38,5.38-13.31,9.42-23.77,12.11-10.47,2.69-23.69,4.04-39.66,4.04-12.19,0-23.12-.65-32.79-1.96-9.67-1.3-17.91-3.53-24.72-6.68-6.81-3.15-12.02-7.46-15.64-12.93-3.62-5.46-5.42-12.36-5.42-20.68s1.81-15.28,5.42-20.87c3.61-5.59,8.83-10.05,15.64-13.37,6.81-3.32,15.05-5.69,24.72-7.12,9.67-1.43,20.6-2.14,32.79-2.14,15.97,0,29.22,1.45,39.73,4.35,10.51,2.9,18.45,7.17,23.84,12.8,5.38,5.63,8.28,12.49,8.7,20.56h-32.79c-1.01-2.69-2.86-5.06-5.55-7.12-2.69-2.06-6.73-3.68-12.11-4.86-5.38-1.18-12.66-1.77-21.82-1.77-10.76,0-19.51.65-26.23,1.95-6.73,1.3-11.65,3.39-14.76,6.24-3.11,2.86-4.67,6.64-4.67,11.35,0,4.29,1.55,7.78,4.67,10.47,3.11,2.69,8.03,4.67,14.76,5.93,6.73,1.26,15.47,1.89,26.23,1.89,9.16,0,16.42-.55,21.75-1.64,5.34-1.09,9.35-2.59,12.04-4.48,2.69-1.89,4.54-3.93,5.55-6.12h32.79Z"/>
    <path class="st1" d="M427.52,822.78v-80.71h97.49c7.65,0,14.52.86,20.62,2.59,6.1,1.72,10.93,4.6,14.5,8.64,3.57,4.04,5.36,9.54,5.36,16.52,0,4.62-.84,8.45-2.52,11.48-1.68,3.03-3.99,5.38-6.94,7.06-2.94,1.68-6.3,2.9-10.09,3.66-3.79.76-7.74,1.22-11.86,1.39l-9.21-1.77c10.01.08,17.72.5,23.14,1.26s9.21,2.12,11.35,4.1c2.14,1.98,3.21,4.81,3.21,8.51v17.28h-31.53v-13.49c0-2.52-.48-4.43-1.45-5.74-.97-1.3-3.07-2.21-6.31-2.71-3.24-.5-8.22-.76-14.94-.76h-49.31v22.7h-31.53ZM459.04,779.02h65.96c2.52,0,4.64-.42,6.37-1.26,1.72-.84,2.58-2.44,2.58-4.79,0-2.18-.86-3.68-2.58-4.48-1.72-.8-3.85-1.2-6.37-1.2h-65.96v11.73Z"/>
    <path class="st1" d="M683.03,813.2h-18.92l68.86-71.13h31.53v80.71h-31.53v-54.99l9.46,3.91-49.82,51.08h-37.83l-49.94-50.95,9.58-3.91v54.86h-31.53v-80.71h31.53l68.61,71.13Z"/>
  </g>
</svg>